<?xml version="1.0" standalone="no"?>
<!DOCTYPE svg PUBLIC "-//W3C//DTD SVG 20010904//EN"
 "http://www.w3.org/TR/2001/REC-SVG-20010904/DTD/svg10.dtd">
<svg version="1.0" xmlns="http://www.w3.org/2000/svg"
 width="100.000000pt" height="100.000000pt" viewBox="0 0 100.000000 100.000000"
 preserveAspectRatio="xMidYMid meet">
<metadata>
Created by potrace 1.14, written by Peter Selinger 2001-2017
</metadata>
<g transform="translate(0.000000,100.000000) scale(0.100000,-0.100000)"
fill="#000000" stroke="none">
<path d="M213 982 c-10 -9 -36 -45 -58 -79 l-40 -63 -31 37 c-26 30 -35 35
-57 29 -50 -12 -29 -66 61 -153 26 -26 31 -27 52 -10 23 18 140 201 140 218 0
18 -19 39 -37 39 -7 0 -21 -8 -30 -18z"/>
<path d="M400 840 l0 -40 300 0 300 0 0 40 0 40 -300 0 -300 0 0 -40z"/>
<path d="M218 648 c-9 -7 -36 -44 -61 -81 l-45 -68 -21 30 c-25 35 -56 48 -76
31 -24 -20 -18 -42 30 -99 49 -60 67 -74 87 -66 20 8 148 208 148 232 0 31
-35 42 -62 21z"/>
<path d="M400 500 l0 -40 300 0 300 0 0 40 0 40 -300 0 -300 0 0 -40z"/>
<path d="M219 268 c-8 -7 -33 -39 -54 -71 -22 -32 -43 -61 -48 -64 -5 -3 -22
9 -37 26 -16 17 -35 31 -43 31 -22 0 -40 -27 -33 -52 6 -24 97 -128 112 -128
18 0 32 17 102 121 66 100 70 108 56 128 -17 24 -33 27 -55 9z"/>
<path d="M400 120 l0 -40 300 0 300 0 0 40 0 40 -300 0 -300 0 0 -40z"/>
</g>
</svg>
